<?xml version="1.0" encoding="UTF-8"?> <svg xmlns="http://www.w3.org/2000/svg" width="280" height="70" viewBox="0 0 280 70" fill="none"><g clip-path="url(#clip0)"><path d="M197.06 36.3125C196.303 35.7442 195.377 35.4474 194.431 35.4698C194.011 35.4659 193.594 35.5255 193.192 35.6467C192.833 35.762 192.495 35.9326 192.189 36.1524C191.895 36.3598 191.636 36.613 191.422 36.9024C191.203 37.1941 191.019 37.5109 190.875 37.8462C190.73 38.1912 190.62 38.5497 190.546 38.9165C190.479 39.292 190.445 39.6727 190.445 40.0541C190.439 40.624 190.515 41.1917 190.672 41.7395C190.812 42.2392 191.05 42.7061 191.372 43.1132C191.689 43.5162 192.096 43.8394 192.56 44.057C193.088 44.3007 193.664 44.4217 194.245 44.4109C194.818 44.4148 195.387 44.3266 195.931 44.1497C196.448 43.9825 196.927 43.7131 197.338 43.3576L197.76 44.3941C197.284 44.7835 196.733 45.0704 196.142 45.2368C195.456 45.4307 194.747 45.5244 194.035 45.5149C193.299 45.5287 192.57 45.385 191.894 45.0935C191.295 44.8217 190.763 44.4219 190.335 43.9222C189.911 43.4267 189.585 42.8546 189.375 42.2367C189.159 41.5555 189.051 40.8446 189.054 40.13C189.052 39.6339 189.106 39.1392 189.214 38.6552C189.315 38.1918 189.471 37.7421 189.678 37.3153C189.879 36.9008 190.131 36.513 190.428 36.1608C190.725 35.8123 191.072 35.5086 191.456 35.2591C191.853 35.0023 192.284 34.8036 192.737 34.6692C193.23 34.5302 193.741 34.4621 194.254 34.4669C194.86 34.4563 195.463 34.5445 196.04 34.7282C196.578 34.9081 197.074 35.1947 197.498 35.5709L197.06 36.3125Z" fill="white"></path><path d="M203.465 37.5597C204.042 37.5444 204.616 37.6506 205.15 37.8715C205.606 38.0614 206.014 38.3491 206.347 38.7143C206.651 39.0839 206.877 39.5109 207.013 39.9699C207.18 40.4695 207.263 40.9936 207.257 41.5205C207.26 42.0341 207.175 42.5444 207.004 43.029C206.845 43.496 206.593 43.926 206.263 44.293C205.922 44.6566 205.509 44.9438 205.049 45.1357C204.529 45.3528 203.969 45.459 203.406 45.4475C202.829 45.4612 202.256 45.358 201.72 45.1442C201.264 44.9557 200.853 44.6716 200.516 44.3111C200.179 43.9506 199.923 43.522 199.765 43.0542C199.595 42.561 199.509 42.0424 199.512 41.5205C199.507 40.995 199.596 40.4728 199.774 39.9783C199.93 39.5035 200.188 39.068 200.528 38.7015C200.868 38.335 201.284 38.0462 201.746 37.8547C202.291 37.6358 202.877 37.5353 203.465 37.5597ZM205.993 41.5374C205.995 41.1474 205.944 40.759 205.841 40.3828C205.746 40.0382 205.586 39.7149 205.369 39.4306C205.154 39.1571 204.881 38.9354 204.569 38.7817C204.206 38.6194 203.812 38.5389 203.414 38.5457C203.024 38.5389 202.637 38.6226 202.285 38.7901C201.96 38.9491 201.672 39.1761 201.442 39.4558C201.218 39.7419 201.049 40.0679 200.945 40.4165C200.834 40.7827 200.777 41.1631 200.776 41.5458C200.776 41.9258 200.833 42.3037 200.945 42.6666C201.051 43.0093 201.219 43.3294 201.442 43.6104C201.669 43.8874 201.957 44.1069 202.285 44.2509C202.646 44.4194 203.041 44.5029 203.439 44.4953C203.827 44.5039 204.211 44.4201 204.56 44.2509C204.872 44.0972 205.146 43.8754 205.361 43.602C205.576 43.3196 205.736 42.9995 205.833 42.6582C205.944 42.2946 206.003 41.9174 206.01 41.5374H205.993Z" fill="white"></path><path d="M210.493 45.2957H209.28V39.5653C209.28 39.3378 209.28 39.1102 209.28 38.8995C209.28 38.6889 209.28 38.4782 209.28 38.3096C209.28 38.1411 209.28 37.922 209.28 37.745H210.51V38.79C210.781 38.3943 211.15 38.0751 211.58 37.863C212.039 37.651 212.541 37.5472 213.046 37.5596C213.516 37.5449 213.983 37.6371 214.412 37.8293C214.755 38.0065 215.046 38.2709 215.254 38.5962C215.468 38.9539 215.614 39.3482 215.684 39.7591C215.769 40.2517 215.808 40.751 215.802 41.2507V45.2957H214.597V41.3855C214.597 40.9642 214.597 40.5428 214.547 40.2226C214.516 39.9114 214.437 39.607 214.311 39.3209C214.194 39.0793 214.005 38.8793 213.771 38.7479C213.48 38.599 213.154 38.5293 212.827 38.5456C212.489 38.5367 212.154 38.6089 211.85 38.7563C211.582 38.8878 211.338 39.0614 211.125 39.2703C210.942 39.4599 210.789 39.6758 210.67 39.9108C210.577 40.0945 210.523 40.2952 210.51 40.5007L210.493 45.2957Z" fill="white"></path><path d="M223.125 39.0598C222.835 38.8699 222.512 38.7356 222.173 38.6637C221.79 38.586 221.401 38.5465 221.01 38.5458C220.8 38.5434 220.59 38.5689 220.386 38.6216C220.21 38.6627 220.042 38.734 219.889 38.8323C219.753 38.9148 219.638 39.0272 219.552 39.1609C219.473 39.2935 219.433 39.445 219.434 39.5991C219.43 39.7548 219.474 39.908 219.561 40.0374C219.647 40.1684 219.762 40.278 219.898 40.3576C220.054 40.457 220.221 40.539 220.395 40.602C220.596 40.6807 220.801 40.7482 221.01 40.8042L221.634 40.9896C221.861 41.0571 222.08 41.1329 222.299 41.2172C222.516 41.3018 222.727 41.4003 222.931 41.5121C223.127 41.6237 223.306 41.7628 223.462 41.925C223.62 42.0855 223.746 42.2742 223.833 42.4812C223.928 42.7107 223.974 42.9576 223.968 43.206C223.978 43.5556 223.888 43.9009 223.707 44.2004C223.53 44.4858 223.291 44.7277 223.007 44.9082C222.701 45.1012 222.365 45.2435 222.013 45.3296C221.635 45.4211 221.247 45.4664 220.858 45.4644C220.606 45.4644 220.344 45.4644 220.091 45.4223C219.843 45.3954 219.597 45.3446 219.358 45.2706C219.133 45.2077 218.915 45.1201 218.709 45.0094C218.516 44.9055 218.342 44.7686 218.195 44.6049L218.524 43.6105C218.656 43.7692 218.812 43.9058 218.988 44.015C219.169 44.1261 219.361 44.2192 219.561 44.2931C219.767 44.3614 219.978 44.4121 220.193 44.4448C220.402 44.4783 220.613 44.4952 220.825 44.4953C221.079 44.4968 221.334 44.4714 221.583 44.4195C221.794 44.3734 221.996 44.2937 222.181 44.1835C222.342 44.091 222.478 43.9609 222.577 43.8043C222.678 43.6489 222.728 43.4665 222.721 43.2818C222.733 43.0862 222.676 42.8925 222.561 42.734C222.438 42.5863 222.286 42.4658 222.114 42.3801C221.894 42.2665 221.662 42.1762 221.423 42.1104L220.58 41.8492C220.209 41.7312 219.881 41.6048 219.586 41.4784C219.31 41.3687 219.054 41.215 218.827 41.0233C218.627 40.8603 218.463 40.6563 218.347 40.425C218.228 40.1606 218.173 39.8719 218.187 39.5823C218.176 39.2598 218.258 38.941 218.423 38.6637C218.582 38.405 218.798 38.1859 219.055 38.0233C219.327 37.8499 219.626 37.7219 219.94 37.6441C220.273 37.5605 220.616 37.518 220.959 37.5176C221.43 37.5155 221.898 37.5635 222.358 37.6609C222.757 37.7412 223.131 37.9112 223.454 38.1581L223.125 39.0598Z" fill="white"></path><path d="M231.384 37.7451H232.597V43.484C232.597 43.8126 232.597 44.116 232.597 44.4025C232.597 44.6891 232.597 44.984 232.648 45.2958H231.392V44.3014C231.102 44.6912 230.718 45.0018 230.276 45.205C229.835 45.4082 229.349 45.4974 228.864 45.4644C228.531 45.4694 228.199 45.4268 227.878 45.338C227.613 45.2631 227.362 45.1434 227.137 44.984C226.934 44.8406 226.758 44.6639 226.614 44.4615C226.48 44.2617 226.369 44.0467 226.285 43.8211C226.202 43.5856 226.14 43.343 226.1 43.0963C226.066 42.8506 226.049 42.6028 226.049 42.3548V37.7451H227.263V42.3548C227.215 42.9248 227.374 43.493 227.71 43.9559C227.893 44.1473 228.117 44.2951 228.365 44.3885C228.613 44.4818 228.878 44.5183 229.142 44.4952C229.467 44.4995 229.789 44.4334 230.086 44.3014C230.351 44.179 230.587 44.0008 230.777 43.7789C230.966 43.5515 231.111 43.2916 231.207 43.0121C231.309 42.7138 231.36 42.4004 231.359 42.0851L231.384 37.7451Z" fill="white"></path><path d="M236.625 34.3152V45.2705H235.412V34.3152H236.625Z" fill="white"></path><path d="M240.089 38.5289H238.598V37.7452H240.089L240.131 35.7395L241.303 35.394V37.7452H243.19V38.5289H241.303V43.0459C241.303 43.2144 241.303 43.383 241.303 43.5515C241.308 43.7162 241.343 43.8788 241.404 44.0319C241.456 44.1871 241.56 44.3199 241.698 44.4087C241.835 44.4974 241.999 44.5369 242.162 44.5206C242.33 44.5213 242.497 44.5015 242.659 44.4616C242.851 44.4133 243.039 44.3542 243.224 44.2847V45.1948C243.052 45.2959 242.864 45.3671 242.668 45.4055C242.443 45.4483 242.214 45.468 241.985 45.4645C241.641 45.4808 241.299 45.4082 240.991 45.2538C240.751 45.1223 240.553 44.9268 240.418 44.6892C240.271 44.4297 240.179 44.1429 240.148 43.8465C240.104 43.5168 240.081 43.1846 240.081 42.852L240.089 38.5289Z" fill="white"></path><path d="M248.255 37.5598C248.538 37.5567 248.821 37.585 249.098 37.6441C249.339 37.6969 249.573 37.776 249.797 37.88C250.012 37.9843 250.213 38.1145 250.396 38.2677C250.583 38.4197 250.752 38.5921 250.901 38.7817L250.952 37.7452H252.148V39.6076V45.2959H250.926V44.2341C250.798 44.407 250.648 44.5627 250.48 44.6976C250.293 44.8526 250.09 44.9855 249.873 45.0937C249.636 45.2087 249.387 45.2991 249.131 45.3633C248.855 45.4298 248.573 45.4638 248.289 45.4645C247.901 45.471 247.514 45.417 247.143 45.3043C246.497 45.0998 245.93 44.7029 245.516 44.1667C245.318 43.9076 245.154 43.6244 245.027 43.324C244.899 43.0261 244.803 42.7153 244.741 42.397C244.674 42.0811 244.64 41.7591 244.64 41.4363C244.64 40.9525 244.717 40.4718 244.867 40.0121C245.013 39.5585 245.242 39.1356 245.541 38.7649C245.857 38.4066 246.245 38.1194 246.679 37.9222C247.171 37.6845 247.709 37.5606 248.255 37.5598ZM248.398 44.4953C248.733 44.4978 249.064 44.4258 249.367 44.2847C249.672 44.1376 249.942 43.928 250.16 43.6695C250.403 43.366 250.589 43.0204 250.707 42.6498C250.85 42.1974 250.918 41.725 250.91 41.2509C250.915 40.8782 250.855 40.5075 250.733 40.1554C250.621 39.8422 250.446 39.5554 250.219 39.3126C249.998 39.0681 249.724 38.8778 249.418 38.7565C248.818 38.5196 248.157 38.49 247.539 38.6722C247.309 38.7503 247.093 38.8641 246.898 39.0093C246.713 39.1522 246.551 39.3228 246.418 39.5149C246.278 39.7007 246.165 39.9049 246.081 40.1216C245.988 40.3409 245.92 40.5699 245.879 40.8043C245.838 41.0352 245.819 41.2693 245.82 41.5037C245.82 41.7378 245.837 41.9715 245.87 42.2031C245.9 42.4376 245.95 42.6689 246.022 42.8942C246.097 43.1136 246.199 43.3231 246.325 43.5178C246.456 43.7146 246.618 43.8883 246.806 44.0318C247.011 44.1818 247.238 44.2984 247.48 44.3773C247.778 44.4643 248.088 44.5041 248.398 44.4953Z" fill="white"></path><path d="M255.224 38.5289H253.724V37.7452H255.224V35.7395L256.404 35.394V37.7452H258.283V38.5289H256.404V43.0459C256.404 43.2144 256.404 43.383 256.404 43.5515C256.411 43.7153 256.443 43.8771 256.497 44.0319C256.549 44.1886 256.654 44.3226 256.794 44.4115C256.933 44.5004 257.099 44.5389 257.264 44.5206C257.428 44.5208 257.592 44.501 257.752 44.4616C257.946 44.4134 258.138 44.3543 258.325 44.2847V45.1948C258.15 45.2945 257.959 45.3657 257.761 45.4055C257.536 45.4483 257.307 45.468 257.078 45.4645C256.737 45.482 256.397 45.4094 256.092 45.2538C255.848 45.1251 255.646 44.9291 255.511 44.6892C255.368 44.428 255.276 44.142 255.241 43.8465C255.2 43.5166 255.18 43.1844 255.182 42.852L255.224 38.5289Z" fill="white"></path><path d="M260.567 37.7452H261.789V45.3296H260.567V37.7452ZM261.755 34.5344V35.6721H260.626V34.5344H261.755Z" fill="white"></path><path d="M267.907 37.5597C268.485 37.5436 269.059 37.6498 269.593 37.8715C270.048 38.0614 270.457 38.349 270.789 38.7142C271.114 39.079 271.36 39.5063 271.514 39.9698C271.677 40.4704 271.76 40.9938 271.758 41.5204C271.761 42.0341 271.676 42.5444 271.505 43.0289C271.34 43.495 271.085 43.9243 270.755 44.293C270.42 44.6581 270.009 44.9457 269.55 45.1357C269.017 45.3573 268.442 45.4636 267.865 45.4475C267.288 45.4604 266.715 45.3573 266.18 45.1441C265.724 44.95 265.313 44.663 264.974 44.3014C264.643 43.9419 264.39 43.5171 264.233 43.0542C264.056 42.5625 263.967 42.0431 263.972 41.5204C263.971 40.9953 264.059 40.4738 264.233 39.9783C264.393 39.5072 264.648 39.0741 264.983 38.7058C265.331 38.3441 265.75 38.0573 266.213 37.8631C266.75 37.6436 267.327 37.5402 267.907 37.5597ZM270.435 41.5373C270.439 41.1467 270.385 40.7577 270.275 40.3828C270.18 40.0381 270.02 39.7149 269.803 39.4305C269.576 39.152 269.288 38.9299 268.96 38.7816C268.598 38.6193 268.203 38.5388 267.806 38.5457C267.419 38.5402 267.035 38.6238 266.685 38.7901C266.358 38.9465 266.07 39.1739 265.842 39.4558C265.618 39.7419 265.449 40.0678 265.345 40.4165C265.237 40.783 265.183 41.1635 265.185 41.5457C265.182 41.9253 265.236 42.3032 265.345 42.6665C265.451 43.0093 265.62 43.3293 265.842 43.6104C266.069 43.8874 266.358 44.1068 266.685 44.2508C267.047 44.4182 267.441 44.5017 267.84 44.4952C268.23 44.502 268.616 44.4184 268.969 44.2508C269.278 44.097 269.549 43.8752 269.761 43.6019C269.976 43.3196 270.136 42.9994 270.233 42.6581C270.365 42.2982 270.442 41.9203 270.46 41.5373H270.435Z" fill="white"></path><path d="M274.699 45.296H273.486V39.5655C273.486 39.338 273.486 39.1104 273.486 38.8998C273.486 38.6891 273.486 38.4784 273.486 38.3099C273.486 38.1413 273.486 37.9222 273.486 37.7452H274.716V38.7902C274.984 38.3949 275.35 38.0756 275.778 37.8632C276.24 37.6522 276.745 37.5485 277.253 37.5598C277.72 37.544 278.184 37.6363 278.61 37.8295C278.955 38.0043 279.246 38.2693 279.452 38.5964C279.673 38.9515 279.822 39.3467 279.89 39.7593C279.971 40.2524 280.01 40.7513 280.008 41.2509V45.296H278.795V41.3858C278.798 40.9973 278.779 40.609 278.736 40.2228C278.713 39.9114 278.636 39.6063 278.508 39.3211C278.389 39.0813 278.201 38.882 277.969 38.7481C277.675 38.5993 277.346 38.5296 277.017 38.5458C276.679 38.5388 276.344 38.611 276.039 38.7565C275.774 38.888 275.532 39.0616 275.323 39.2705C275.135 39.4556 274.981 39.6724 274.868 39.911C274.771 40.0932 274.716 40.2948 274.708 40.5009L274.699 45.296Z" fill="white"></path><path d="M191.844 60.3719H190.571V49.6526H191.844V60.3719Z" fill="white"></path><path d="M196.158 60.372H194.945V54.6416C194.945 54.414 194.945 54.1949 194.945 53.9758C194.945 53.7567 194.945 53.5629 194.945 53.3859V52.8213H196.175V53.8663C196.446 53.4732 196.811 53.1544 197.237 52.9393C197.696 52.7273 198.198 52.6235 198.703 52.6359C199.173 52.6194 199.64 52.7117 200.069 52.9056C200.414 53.0804 200.705 53.3454 200.911 53.6724C201.132 54.027 201.278 54.4227 201.341 54.8354C201.429 55.3277 201.471 55.827 201.468 56.327V60.372H200.271V56.4618C200.274 56.0734 200.254 55.685 200.212 55.2989C200.19 54.9863 200.11 54.6805 199.976 54.3972C199.862 54.1562 199.677 53.9561 199.445 53.8241C199.15 53.6761 198.822 53.6064 198.493 53.6219C198.155 53.619 197.822 53.691 197.515 53.8326C197.247 53.9661 197.002 54.1426 196.79 54.3551C196.608 54.5396 196.457 54.7532 196.344 54.9871C196.247 55.1693 196.192 55.3709 196.184 55.577L196.158 60.372Z" fill="white"></path><path d="M204.198 52.8213H205.411V60.4058H204.198V52.8213ZM205.386 49.6106V50.7483H204.257V49.6106H205.386Z" fill="white"></path><path d="M208.85 53.6051H207.358V52.8214H208.85L208.892 50.8157L210.063 50.4702V52.8214H211.951V53.6051H210.063V58.122C210.063 58.2906 210.063 58.4591 210.063 58.6361C210.07 58.798 210.104 58.9576 210.164 59.108C210.214 59.2495 210.305 59.3728 210.426 59.462C210.571 59.564 210.746 59.6145 210.923 59.6052C211.091 59.6024 211.257 59.5798 211.42 59.5378L211.985 59.3693V60.271C211.812 60.3721 211.624 60.4433 211.428 60.4816C211.203 60.5244 210.975 60.5442 210.746 60.5406C210.403 60.5553 210.061 60.4858 209.751 60.3384C209.513 60.2045 209.316 60.0096 209.178 59.7738C209.034 59.5133 208.942 59.2269 208.909 58.9311C208.864 58.6015 208.842 58.2693 208.841 57.9367L208.85 53.6051Z" fill="white"></path><path d="M213.965 52.8213H215.178V60.4058H213.965V52.8213ZM215.145 49.6106V50.7483H214.024V49.6106H215.145Z" fill="white"></path><path d="M221.018 52.6106C221.301 52.6112 221.584 52.6394 221.861 52.6949C222.106 52.7483 222.343 52.8303 222.569 52.9393C222.781 53.0396 222.98 53.1671 223.159 53.3185C223.347 53.4726 223.519 53.6448 223.673 53.8325L223.715 52.796H224.912V54.6584V60.3467H223.698V59.3523C223.573 59.525 223.425 59.6808 223.26 59.8158C223.071 59.9671 222.868 60.0997 222.653 60.2119C222.413 60.3269 222.162 60.4173 221.903 60.4815C221.627 60.549 221.345 60.583 221.061 60.5827C220.673 60.5886 220.286 60.5346 219.914 60.4226C219.586 60.3208 219.276 60.1671 218.996 59.9675C218.728 59.7758 218.489 59.5458 218.288 59.2849C218.091 59.025 217.927 58.742 217.799 58.4422C217.673 58.1433 217.578 57.8329 217.513 57.5152C217.449 57.2018 217.418 56.8827 217.42 56.5629C217.421 56.0771 217.495 55.5941 217.639 55.1303C217.787 54.6756 218.018 54.2525 218.322 53.8831C218.636 53.5274 219.021 53.2405 219.451 53.0404C219.934 52.7806 220.47 52.6336 221.018 52.6106ZM221.162 59.5461C221.5 59.547 221.834 59.4717 222.138 59.3258C222.443 59.1799 222.712 58.9672 222.923 58.7034C223.166 58.3999 223.352 58.0543 223.471 57.6837C223.612 57.2309 223.683 56.7591 223.681 56.2848C223.688 55.9141 223.625 55.5454 223.496 55.1977C223.383 54.887 223.211 54.6009 222.99 54.355C222.753 54.1108 222.466 53.921 222.148 53.7988C221.811 53.6609 221.45 53.5921 221.086 53.5966C220.8 53.5881 220.514 53.631 220.243 53.723C220.013 53.7965 219.797 53.9075 219.603 54.0516C219.413 54.1921 219.248 54.3629 219.114 54.5573C218.975 54.7469 218.862 54.9537 218.777 55.1724C218.687 55.392 218.622 55.621 218.583 55.855C218.54 56.0829 218.518 56.3142 218.516 56.5461C218.516 56.7801 218.533 57.0138 218.566 57.2455C218.598 57.4802 218.652 57.7115 218.726 57.9365C218.796 58.1569 218.895 58.3667 219.021 58.5601C219.152 58.7568 219.314 58.9305 219.502 59.0742C219.705 59.2274 219.933 59.3442 220.176 59.4197C220.494 59.5245 220.827 59.5757 221.162 59.5714V59.5461Z" fill="white"></path><path d="M227.988 53.6051H226.488V52.8214H227.988V50.8157L229.168 50.4702V52.8214H231.055V53.6051H229.168V58.122C229.168 58.2906 229.168 58.4591 229.168 58.6361C229.176 58.797 229.207 58.956 229.26 59.108C229.31 59.2495 229.401 59.3727 229.521 59.462C229.67 59.5624 229.848 59.6126 230.027 59.6052C230.192 59.6024 230.356 59.5797 230.516 59.5378C230.693 59.4957 230.878 59.4367 231.089 59.3693V60.271C230.913 60.3707 230.722 60.4418 230.524 60.4816C230.299 60.5244 230.071 60.5442 229.842 60.5406C229.501 60.5563 229.162 60.4868 228.856 60.3384C228.616 60.2069 228.418 60.0114 228.283 59.7738C228.135 59.5149 228.043 59.2278 228.013 58.9311C227.964 58.6019 227.942 58.2694 227.946 57.9367L227.988 53.6051Z" fill="white"></path><path d="M233.137 52.8213H234.35V60.4058H233.137V52.8213ZM234.325 49.6106V50.7483H233.137V49.6106H234.325Z" fill="white"></path><path d="M235.977 52.8213H237.35L239.415 57.8776L239.541 58.2062C239.592 58.3495 239.634 58.4927 239.676 58.636C239.718 58.7793 239.786 58.9647 239.845 59.1501L239.996 58.6444C239.996 58.5012 240.089 58.3663 240.131 58.2231C240.164 58.1046 240.206 57.989 240.258 57.8776L242.288 52.8213H243.586L240.401 60.4057H239.162L235.977 52.8213Z" fill="white"></path><path d="M251.373 59.5294C250.978 59.8733 250.52 60.1367 250.025 60.3047C249.478 60.47 248.91 60.5496 248.339 60.5406C247.797 60.5511 247.259 60.4537 246.755 60.2541C246.304 60.0651 245.9 59.7771 245.575 59.4114C245.241 59.0569 244.988 58.6343 244.834 58.1726C244.66 57.6626 244.575 57.1269 244.581 56.5883C244.577 56.0637 244.662 55.5422 244.834 55.0462C244.99 54.5816 245.237 54.1521 245.558 53.7821C245.885 53.4215 246.284 53.1343 246.73 52.9394C247.224 52.7152 247.762 52.603 248.306 52.6107C248.823 52.5966 249.338 52.6943 249.814 52.8972C250.222 53.0671 250.584 53.3331 250.867 53.6725C251.153 54.0217 251.362 54.4263 251.483 54.8608C251.621 55.3429 251.689 55.8424 251.685 56.3439V56.5293C251.685 56.6052 251.685 56.6642 251.685 56.7316H245.904V57.0602C245.932 57.4036 246.008 57.7412 246.131 58.0631C246.241 58.3584 246.41 58.628 246.629 58.8552C246.846 59.0781 247.107 59.2532 247.395 59.3693C247.727 59.4923 248.078 59.5523 248.432 59.5462C248.92 59.5505 249.404 59.4589 249.856 59.2766C250.289 59.0892 250.683 58.8235 251.019 58.4928L251.373 59.5294ZM250.395 55.8889V55.7877C250.372 55.4997 250.31 55.2162 250.21 54.945C250.116 54.6936 249.976 54.4621 249.797 54.2624C249.618 54.0663 249.396 53.9135 249.148 53.8158C248.881 53.705 248.594 53.6505 248.306 53.6557C247.987 53.6485 247.67 53.7118 247.379 53.8411C247.11 53.9509 246.868 54.1176 246.671 54.3298C246.468 54.5387 246.302 54.781 246.182 55.0462C246.065 55.3156 245.983 55.5988 245.938 55.8889H250.395Z" fill="white"></path><path d="M11.1322 7.38207C11.1322 7.38207 18.7166 36.0343 49.6695 45.6581C76.6363 54.0431 100.78 37.0034 100.78 37.0034L93.8361 30.0595C93.8361 30.0595 73.1728 48.8267 45.3379 40.2816C18.8683 32.1578 11.267 7.25566 11.1322 7.38207Z" fill="white"></path><path d="M10.003 61.8131C6.52566 55.6582 4.68292 48.7151 4.65046 41.6459C4.61801 34.5766 6.39692 27.6169 9.8176 21.4303C10.3906 20.3938 12.0002 17.8403 12.666 16.8459C12.9041 17.4045 13.1714 17.9502 13.4666 18.4808L14.8065 20.6803C14.4272 21.2112 13.5677 22.6438 13.121 23.4191C11.0509 27.3192 9.47953 31.4642 8.44398 35.7564C7.8594 38.0946 7.4871 40.4807 7.3316 42.8858C6.80911 52.0798 10.003 61.8131 10.003 61.8131Z" fill="white"></path><path d="M83.0663 34.5345C81.7464 29.1315 79.2701 24.0791 75.8083 19.7259C72.3466 15.3727 67.9816 11.8223 63.0146 9.31957C58.0477 6.81686 52.5969 5.42143 47.0383 5.22954C41.4798 5.03765 35.9457 6.05386 30.818 8.20809C26.1822 10.2267 21.9289 13.029 18.2447 16.492C17.6989 15.8598 17.195 15.1926 16.7363 14.4947C16.3871 13.9697 16.104 13.4037 15.8936 12.8093C19.901 8.87807 24.586 5.70341 29.7225 3.43833C37.318 0.194025 45.7105 -0.703422 53.8202 0.861459C61.93 2.42634 69.386 6.38196 75.229 12.2194C80.6906 17.8183 84.5446 24.784 86.3866 32.3855C86.0326 32.8329 85.5982 33.2102 85.1056 33.4979C84.4572 33.902 83.7749 34.2488 83.0663 34.5345Z" fill="white"></path><path d="M0 61.5266C0 61.5266 13.9301 71.9931 28.568 69.5492C43.2059 67.1053 53.1247 54.9955 56.3101 50.3269C56.3101 50.3269 47.6723 51.0685 40.6019 56.0068C33.5316 60.9451 26.596 65.4873 18.4133 65.7064C13.7447 65.8244 3.0759 63.7766 0 61.5266Z" fill="white"></path><path d="M116.177 21.8936C116.667 22.4681 117.234 22.9728 117.862 23.3937C118.385 23.7459 118.952 24.0291 119.547 24.2364C120.094 24.4186 120.659 24.5402 121.233 24.5987C121.806 24.6493 122.362 24.6746 122.918 24.6746C123.845 24.6815 124.77 24.5825 125.674 24.3796C126.432 24.2212 127.159 23.9363 127.823 23.5369C128.396 23.1767 128.875 22.6857 129.222 22.1043C129.571 21.4621 129.745 20.7391 129.726 20.0081C129.707 19.2771 129.495 18.5642 129.112 17.9413C128.674 17.3173 128.115 16.7873 127.469 16.3823C126.743 15.918 125.972 15.5283 125.168 15.2193C124.326 14.8823 123.424 14.5452 122.522 14.2165C121.62 13.8879 120.736 13.5255 119.876 13.1378C119.052 12.7712 118.277 12.3041 117.567 11.7474C116.901 11.2169 116.346 10.5613 115.932 9.81755C115.499 8.97436 115.287 8.03475 115.317 7.08716C115.293 6.0784 115.559 5.08402 116.084 4.22194C116.599 3.3891 117.293 2.68104 118.115 2.14886C119.001 1.57611 119.974 1.15197 120.997 0.893214C122.082 0.615618 123.197 0.476867 124.317 0.480286C124.881 0.481546 125.444 0.518133 126.003 0.589837C126.599 0.66683 127.188 0.793685 127.764 0.969062C128.349 1.14114 128.914 1.37564 129.449 1.66852C129.992 1.96664 130.491 2.33811 130.932 2.77247L130.09 4.39048C129.333 3.70564 128.435 3.19379 127.46 2.89045C126.458 2.60053 125.42 2.45302 124.376 2.45224C123.586 2.4534 122.798 2.53528 122.025 2.69662C121.287 2.84098 120.578 3.10576 119.927 3.48034C119.326 3.82063 118.808 4.28974 118.41 4.85397C118.011 5.44535 117.808 6.14674 117.828 6.85963C117.808 7.60626 118.024 8.34025 118.443 8.95798C118.889 9.57068 119.447 10.0939 120.087 10.5001C120.816 10.9754 121.589 11.379 122.396 11.7052L125.05 12.7755C125.952 13.1294 126.837 13.5171 127.705 13.9216C128.533 14.3086 129.312 14.7953 130.022 15.371C130.688 15.9218 131.242 16.5938 131.657 17.3514C132.089 18.1892 132.3 19.1229 132.272 20.065C132.282 20.8105 132.151 21.5511 131.885 22.2476C131.631 22.8743 131.259 23.4465 130.789 23.933C130.316 24.4279 129.77 24.8484 129.171 25.1802C128.538 25.5319 127.868 25.8144 127.174 26.0229C126.444 26.2444 125.697 26.405 124.941 26.5033C124.175 26.6011 123.404 26.6489 122.632 26.6465C121.184 26.6623 119.749 26.3753 118.418 25.8038C117.145 25.2487 116.034 24.3786 115.191 23.2757L116.177 21.8936Z" fill="white"></path><path d="M138.82 0V11.8823C139.457 10.6556 140.412 9.62239 141.584 8.89063C142.779 8.22982 144.13 7.90373 145.494 7.94679C146.492 7.91186 147.485 8.09895 148.402 8.49455C149.132 8.82585 149.775 9.32201 150.281 9.94402C150.758 10.5571 151.116 11.2547 151.334 12.0002C151.563 12.7656 151.704 13.5543 151.756 14.3514V15.1099V26.2337H149.598V17.0228C149.598 16.593 149.598 16.1211 149.598 15.5986C149.598 15.0761 149.598 14.8233 149.598 14.8065C149.617 13.4248 149.145 12.0814 148.267 11.0143C147.795 10.5496 147.229 10.1912 146.607 9.963C145.985 9.73482 145.321 9.64216 144.66 9.69121C143.792 9.67138 142.93 9.83806 142.132 10.18C141.435 10.4885 140.814 10.9458 140.312 11.5199C139.811 12.1095 139.435 12.7947 139.208 13.534C138.952 14.3343 138.829 15.1714 138.845 16.0116V26.2421H136.688V0H138.82Z" fill="white"></path><path d="M164.371 7.94688C165.133 7.93533 165.892 8.02603 166.63 8.21655C167.271 8.38142 167.884 8.63982 168.45 8.98342C169.008 9.31475 169.518 9.72013 169.967 10.1885C170.444 10.6954 170.883 11.2362 171.282 11.8065L171.366 8.37667H173.456V26.2338H171.265V22.4247C171.073 22.9547 170.788 23.4457 170.422 23.8742C169.985 24.3978 169.474 24.8549 168.905 25.2309C168.262 25.6642 167.561 26.0047 166.824 26.2422C165.238 26.7973 163.518 26.8353 161.91 26.3507C160.302 25.8661 158.889 24.884 157.874 23.5455C157.185 22.6243 156.671 21.5846 156.357 20.478C156.041 19.3822 155.879 18.2477 155.877 17.1072C155.876 15.964 156.049 14.8273 156.391 13.7363C156.728 12.6644 157.265 11.6664 157.975 10.7953C158.702 9.92872 159.604 9.22521 160.621 8.73061C161.793 8.18171 163.077 7.91338 164.371 7.94688ZM171.349 17.0988C171.284 16.1716 171.123 15.2537 170.869 14.3599C170.64 13.5011 170.248 12.6943 169.714 11.9835C169.177 11.2648 168.475 10.6865 167.666 10.2981C166.685 9.84635 165.611 9.62993 164.531 9.66602C163.553 9.63002 162.581 9.8339 161.7 10.2599C160.818 10.6859 160.055 11.321 159.475 12.1099C158.938 12.8385 158.544 13.6619 158.312 14.5369C158.071 15.4041 157.946 16.2997 157.941 17.1999C157.943 18.103 158.037 19.0037 158.219 19.8881C158.393 20.7887 158.739 21.6472 159.239 22.4163C159.764 23.1835 160.47 23.8088 161.295 24.2365C162.341 24.7534 163.5 24.9997 164.666 24.9528C165.557 24.9597 166.442 24.8055 167.279 24.4978C168.079 24.2066 168.802 23.7368 169.394 23.1242C170.022 22.462 170.504 21.6754 170.81 20.8151C171.18 19.7688 171.358 18.6636 171.332 17.5538L171.349 17.0988Z" fill="white"></path><path d="M180.678 26.2422H178.52V12.5313L178.344 8.3851H180.61L180.678 12.6998C180.843 11.9434 181.128 11.2181 181.521 10.5509C181.84 9.99778 182.251 9.50215 182.734 9.08456C183.181 8.70399 183.699 8.41737 184.259 8.24184C184.857 8.05398 185.479 7.95739 186.105 7.95532C186.442 7.95532 186.737 7.95532 186.948 7.95532C187.158 7.96747 187.367 7.9985 187.571 8.04802V10.0368C187.389 9.96906 187.2 9.92377 187.007 9.90199C186.652 9.85662 186.294 9.83691 185.936 9.843C185.209 9.83196 184.489 9.98461 183.83 10.2896C183.191 10.5816 182.629 11.0171 182.186 11.5621C181.7 12.1631 181.328 12.8488 181.091 13.5846C180.802 14.4369 180.657 15.331 180.661 16.2308L180.678 26.2422Z" fill="white"></path><path d="M204.164 22.728L204.796 24.4134C203.921 25.1953 202.881 25.7712 201.754 26.0988C200.485 26.4585 199.171 26.6317 197.852 26.6129C196.586 26.6343 195.328 26.4022 194.153 25.9303C193.108 25.5015 192.17 24.8485 191.406 24.0173C190.651 23.1672 190.078 22.1722 189.72 21.0931C188.932 18.6983 188.932 16.1142 189.72 13.7194C190.085 12.6184 190.657 11.5973 191.406 10.7109C192.157 9.84664 193.085 9.15402 194.128 8.67994C195.257 8.19799 196.47 7.94323 197.697 7.93021C198.925 7.9172 200.143 8.14619 201.282 8.6041C202.235 9.03466 203.074 9.68091 203.734 10.4918C204.401 11.3523 204.889 12.3382 205.167 13.3907C205.492 14.6054 205.65 15.8583 205.639 17.1155C205.639 17.2082 205.639 17.3093 205.639 17.4189C205.639 17.5284 205.639 17.6127 205.639 17.6717H191.38V18.0593C191.368 19.0196 191.522 19.9747 191.835 20.8824C192.124 21.6916 192.577 22.4319 193.167 23.0566C193.761 23.6701 194.479 24.1499 195.274 24.464C196.167 24.8135 197.12 24.9852 198.08 24.9696C199.27 24.9859 200.454 24.7919 201.577 24.3966C202.553 24.0391 203.436 23.4692 204.164 22.728ZM191.414 15.9188H203.364V16.0115C203.339 15.1561 203.209 14.307 202.976 13.4834C202.772 12.759 202.426 12.0827 201.956 11.4946C201.494 10.9289 200.901 10.4836 200.229 10.1968C198.602 9.56551 196.799 9.56551 195.172 10.1968C194.455 10.5115 193.809 10.9704 193.276 11.5452C192.746 12.1255 192.323 12.7962 192.029 13.5255C191.705 14.2877 191.497 15.0946 191.414 15.9188Z" fill="white"></path><path d="M223.437 0H225.594V21.9106C225.594 22.6774 225.594 23.3937 225.594 24.0595C225.594 24.7252 225.594 25.4415 225.662 26.2084H223.53L223.42 22.6269C222.758 23.8879 221.757 24.9387 220.53 25.6606C219.33 26.3082 217.983 26.6335 216.619 26.6045C215.406 26.6364 214.201 26.3914 213.097 25.8882C212.137 25.4343 211.297 24.7618 210.645 23.9246C209.975 23.0646 209.485 22.0787 209.204 21.0257C208.883 19.8562 208.725 18.6483 208.732 17.4357C208.726 16.2127 208.896 14.9951 209.237 13.8205C209.547 12.7185 210.065 11.6859 210.763 10.7783C211.439 9.90455 212.303 9.19334 213.291 8.6968C214.391 8.15621 215.605 7.89019 216.83 7.92151C218.229 7.88568 219.613 8.21999 220.841 8.89063C222.016 9.58963 222.928 10.6557 223.437 11.9244V0ZM217.125 24.9359C218.089 24.9565 219.044 24.7516 219.914 24.3376C220.699 23.9401 221.377 23.3625 221.895 22.6521C222.438 21.8902 222.833 21.0324 223.058 20.124C223.319 19.0826 223.446 18.0122 223.437 16.9385C223.451 15.9195 223.306 14.9045 223.007 13.9301C222.744 13.0966 222.324 12.3213 221.768 11.6463C221.241 11.0179 220.578 10.5167 219.83 10.18C219.032 9.83546 218.171 9.66042 217.302 9.66593C216.32 9.6376 215.347 9.85485 214.471 10.298C213.696 10.6987 213.026 11.276 212.515 11.9834C211.991 12.7273 211.608 13.5615 211.386 14.4441C211.139 15.4077 211.018 16.399 211.024 17.3936C211.018 18.3496 211.125 19.3029 211.344 20.2336C211.538 21.0942 211.896 21.9096 212.397 22.6353C212.887 23.3399 213.537 23.9177 214.294 24.3207C215.174 24.7514 216.145 24.9625 217.125 24.9359Z" fill="white"></path><path d="M118.662 60.5068H116.471V35.1748H122.177C123.154 35.1748 124.106 35.2169 125.042 35.3012C125.937 35.3869 126.824 35.539 127.696 35.7563C128.493 35.9478 129.265 36.2305 129.997 36.599C130.669 36.9473 131.277 37.4091 131.792 37.9642C132.311 38.5389 132.715 39.2085 132.98 39.9361C133.275 40.7867 133.417 41.6823 133.402 42.5823C133.437 43.7621 133.145 44.9288 132.559 45.9531C131.997 46.8867 131.223 47.6749 130.3 48.2537C129.282 48.8785 128.165 49.3258 126.997 49.5768C125.702 49.861 124.379 50.0023 123.053 49.9981H118.772L118.662 60.5068ZM118.772 48.0346H123.828C124.801 48.0401 125.77 47.9355 126.719 47.7228C127.532 47.5419 128.303 47.2104 128.994 46.7453C129.619 46.3137 130.129 45.7349 130.477 45.0598C130.854 44.3166 131.04 43.4911 131.017 42.6581C131.053 41.7164 130.853 40.7806 130.435 39.9361C130.045 39.2253 129.461 38.6405 128.75 38.2507C127.964 37.8203 127.108 37.5349 126.222 37.408C125.137 37.2391 124.041 37.1573 122.943 37.1636H118.73L118.772 48.0346Z" fill="white"></path><path d="M143.759 42.2198C144.52 42.2125 145.279 42.3031 146.017 42.4895C146.657 42.6583 147.27 42.9164 147.837 43.2564C148.395 43.5877 148.905 43.9931 149.354 44.4615C149.831 44.9684 150.27 45.5091 150.669 46.0795L150.753 42.658H152.843V60.5067H150.652V56.6977C150.461 57.2303 150.175 57.7241 149.809 58.1556C149.372 58.6764 148.861 59.1307 148.292 59.5039C147.649 59.9372 146.949 60.2776 146.211 60.5152C144.119 61.1726 141.856 61.0069 139.882 60.0517C138.858 59.5048 137.964 58.743 137.261 57.8185C136.574 56.8993 136.06 55.8627 135.744 54.7594C135.429 53.6634 135.268 52.529 135.264 51.3886C135.261 50.2446 135.437 49.1072 135.786 48.0177C136.115 46.944 136.65 45.9449 137.362 45.0766C138.087 44.2052 138.989 43.4984 140.008 43.0036C141.181 42.4547 142.465 42.1863 143.759 42.2198ZM150.736 51.3717C150.671 50.4446 150.51 49.5268 150.256 48.6329C150.023 47.7754 149.632 46.9692 149.101 46.2564C148.566 45.5397 147.867 44.9617 147.062 44.571C146.077 44.1224 145.001 43.9089 143.919 43.9474C142.939 43.9024 141.964 44.1023 141.081 44.529C140.198 44.9557 139.436 45.5958 138.862 46.3913C138.325 47.1198 137.931 47.9433 137.699 48.8183C137.457 49.6853 137.332 50.581 137.329 51.4813C137.331 52.3844 137.424 53.285 137.607 54.1695C137.784 55.0533 138.13 55.8945 138.626 56.6471C139.151 57.4282 139.86 58.0679 140.691 58.5095C141.74 59.0184 142.897 59.2615 144.062 59.2174C144.953 59.2277 145.838 59.0763 146.674 58.7707C147.473 58.4764 148.196 58.007 148.79 57.3971C149.418 56.7317 149.9 55.9424 150.205 55.0796C150.576 54.0361 150.753 52.9338 150.728 51.8268L150.736 51.3717Z" fill="white"></path><path d="M159.458 44.0824H155.86V42.6583H159.458V37.6441L161.599 37.0542V42.6583H166.192V44.0824H161.599V55.24C161.599 55.9226 161.599 56.5209 161.658 57.0265C161.673 57.4612 161.767 57.8895 161.936 58.2906C162.094 58.6279 162.374 58.8928 162.72 59.0322C163.875 59.387 165.115 59.3544 166.251 58.9395V60.4227C165.977 60.6036 165.671 60.7295 165.349 60.7935C164.964 60.8754 164.571 60.915 164.177 60.9114C163.374 60.931 162.572 60.8258 161.801 60.5996C161.237 60.4265 160.734 60.0962 160.352 59.6474C159.981 59.1863 159.734 58.638 159.635 58.0546C159.498 57.3155 159.433 56.5647 159.441 55.813L159.458 44.0824Z" fill="white"></path><path d="M171.989 34.2646V46.1553C172.621 44.9247 173.577 43.8902 174.753 43.1637C175.939 42.5042 177.282 42.178 178.638 42.2199C179.636 42.1888 180.628 42.3757 181.546 42.7676C182.269 43.0903 182.909 43.5747 183.417 44.1834C183.894 44.7964 184.251 45.4941 184.47 46.2396C184.699 47.0049 184.84 47.7937 184.891 48.5908L184.933 49.3577V60.473H182.776V51.2875C182.776 50.8549 182.776 50.383 182.776 49.8717C182.776 49.3492 182.776 49.088 182.776 49.0796C182.796 47.695 182.324 46.3482 181.445 45.2789C180.972 44.8158 180.405 44.4589 179.783 44.2322C179.161 44.0055 178.498 43.9141 177.838 43.9643C176.971 43.9481 176.11 44.1117 175.31 44.4446C174.614 44.751 173.995 45.2088 173.498 45.7845C172.997 46.3741 172.622 47.0594 172.394 47.7986C172.138 48.5989 172.015 49.436 172.031 50.2762V60.5067H169.874V34.2646H171.989Z" fill="white"></path></g><defs><clipPath id="clip0"><rect width="280" height="69.9284" fill="white"></rect></clipPath></defs></svg> 